<svg width="24" height="27" viewBox="0 0 24 27" fill="none" xmlns="http://www.w3.org/2000/svg">
<path fill-rule="evenodd" clip-rule="evenodd" d="M15.1956 19.4248C15.5826 19.8565 16.2158 19.8627 16.6098 19.4388L21.7007 13.9618C21.8922 13.7558 22 13.4742 22 13.1802C22 12.8863 21.8922 12.6047 21.7007 12.3987L16.6098 6.9217C16.2158 6.49779 15.5826 6.50403 15.1956 6.93565C14.8087 7.36727 14.8144 8.06082 15.2084 8.48473L18.5547 12.0848L3 12.0848C2.44772 12.0848 2 12.5753 2 13.1802C2 13.7852 2.44772 14.2757 3 14.2757L18.5547 14.2757L15.2084 17.8758C14.8144 18.2997 14.8087 18.9932 15.1956 19.4248Z" fill="white"/>
</svg>
